<mxfile host="app.diagrams.net" modified="2022-11-10T15:02:08.742Z" agent="5.0 (Macintosh; Intel Mac OS X 10_15_7) AppleWebKit/537.36 (KHTML, like Gecko) Chrome/107.0.0.0 Safari/537.36" etag="j3ixyBR-I4TwBepkhgM_" version="20.5.1" type="github">
  <diagram id="M-PPtqfPxr3iTAdyskoe" name="ページ1">
    <mxGraphModel dx="2203" dy="3996" grid="1" gridSize="10" guides="1" tooltips="1" connect="1" arrows="1" fold="1" page="1" pageScale="1" pageWidth="1654" pageHeight="1169" math="0" shadow="0">
      <root>
        <mxCell id="0" />
        <mxCell id="1" parent="0" />
        <mxCell id="A2DtMqtqLgV5lxE1PWke-1" value="&lt;p style=&quot;margin:0px;margin-top:4px;text-align:center;&quot;&gt;&lt;i&gt;&amp;lt;&amp;lt;control&amp;gt;&amp;gt;&lt;/i&gt;&lt;br&gt;&lt;b&gt;希少動物管理｜rareanimal-controller&lt;/b&gt;&lt;/p&gt;&lt;hr size=&quot;1&quot;&gt;&lt;p style=&quot;margin:0px;margin-left:4px;&quot;&gt;+ validations: { form: Object, newItem: Object}&lt;br&gt;+ 電柱の選択肢()｜poleOptions(): Array&lt;br&gt;&lt;/p&gt;&lt;p style=&quot;margin:0px;margin-left:4px;&quot;&gt;+ 分類の選択肢()｜largeCategoryOptions(): Array&lt;br&gt;&lt;/p&gt;&lt;p style=&quot;margin:0px;margin-left:4px;&quot;&gt;+ 小分類の選択肢()｜smallCategoryOptions(): Array&lt;br&gt;&lt;/p&gt;&lt;p style=&quot;margin:0px;margin-left:4px;&quot;&gt;+ 種名の選択肢()｜animalCategoryOptions(): Array&lt;br&gt;&lt;/p&gt;&lt;p style=&quot;margin:0px;margin-left:4px;&quot;&gt;+ 大きさの選択肢()｜animalSizeOptions(): Array&lt;br&gt;&lt;/p&gt;&lt;p style=&quot;margin:0px;margin-left:4px;&quot;&gt;+ 目撃現場の選択肢()｜findLocationOptions(): Array&lt;br&gt;&lt;/p&gt;&lt;p style=&quot;margin:0px;margin-left:4px;&quot;&gt;+ 目撃現場の選択肢()｜editAnimalCategoryOptions(): Array&lt;/p&gt;&lt;br&gt;&lt;div&gt;&lt;/div&gt;&lt;hr size=&quot;1&quot;&gt;&lt;p style=&quot;margin:0px;margin-left:4px;&quot;&gt;&lt;/p&gt;&amp;nbsp;&lt;span style=&quot;background-color: initial;&quot;&gt;+&amp;nbsp;&lt;/span&gt;位置情報の共有方法を変更する()｜&lt;span style=&quot;background-color: initial;&quot;&gt;changeTileButton()&lt;/span&gt;&lt;br&gt;&amp;nbsp;+ メッセージを表示する()｜&lt;span style=&quot;background-color: initial;&quot;&gt;messageChild(msg: String, color: String)&lt;/span&gt;&lt;span style=&quot;background-color: initial;&quot;&gt;&lt;br&gt;&lt;/span&gt;&amp;nbsp;+ 一覧表にデータを抽出表示する()｜&lt;span style=&quot;background-color: initial;&quot;&gt;tableFilter()&lt;br&gt;&lt;/span&gt;&lt;span style=&quot;background-color: initial;&quot;&gt;&amp;nbsp;+ 検索する｜searchOn()&lt;br&gt;&lt;/span&gt;&lt;p style=&quot;margin: 0px 0px 0px 4px;&quot;&gt;&lt;span style=&quot;background-color: initial;&quot;&gt;+ 全ての入力データエラーチェックを行う()｜validateFormReCheck():&amp;nbsp;&lt;/span&gt;&lt;/p&gt;&lt;p style=&quot;margin: 0px 0px 0px 4px;&quot;&gt;+ Step1の入力データエラーチェックを行いキャッシュに保存する()｜validateStep1():&lt;/p&gt;&lt;p style=&quot;margin: 0px 0px 0px 4px;&quot;&gt;+ Step2の入力データエラーチェックを行うキャッシュに保存する()｜validateStep2():&lt;/p&gt;&lt;p style=&quot;margin: 0px 0px 0px 4px;&quot;&gt;+ 画像の位置情報をマップ表示しキャッシュに保存する()｜step3MapFile():&lt;/p&gt;&lt;p style=&quot;margin: 0px 0px 0px 4px;&quot;&gt;+ 位置情報から最も近い区間IDの位置情報を取得する()｜validateStep3():&lt;/p&gt;&lt;p style=&quot;margin: 0px 0px 0px 4px;&quot;&gt;+ Step4を閉じてキャッシュに保存する()｜validateStep4()&lt;/p&gt;&lt;p style=&quot;margin: 0px 0px 0px 4px;&quot;&gt;+ 専門職または管理者の位置情報に最も近い区間IDの位置情報をマップ表示しキャッシュに保存する()｜validateManagerStep4()&lt;/p&gt;&lt;p style=&quot;margin: 0px 0px 0px 4px;&quot;&gt;+ 入力データをDB保存しキャッシュを削除する()｜formSubmit():&lt;/p&gt;&lt;p style=&quot;margin: 0px 0px 0px 4px;&quot;&gt;+ 位置情報がない場合ないことを通知する()｜showMessage():&amp;nbsp;&lt;/p&gt;" style="verticalAlign=top;align=left;overflow=fill;fontSize=12;fontFamily=Helvetica;html=1;" vertex="1" parent="1">
          <mxGeometry x="1110" y="-1840" width="700" height="400" as="geometry" />
        </mxCell>
        <mxCell id="A2DtMqtqLgV5lxE1PWke-3" value="&lt;p style=&quot;margin:0px;margin-top:4px;text-align:center;&quot;&gt;&lt;i&gt;&amp;lt;&amp;lt;entity&amp;gt;&amp;gt;&lt;/i&gt;&lt;br&gt;&lt;b&gt;希少動物｜rareanimal&lt;/b&gt;&lt;/p&gt;&lt;hr size=&quot;1&quot;&gt;&lt;p style=&quot;margin:0px;margin-left:4px;&quot;&gt;&lt;span style=&quot;background-color: initial;&quot;&gt;+ animal: {&amp;nbsp;&lt;/span&gt;&lt;br&gt;&lt;/p&gt;&lt;p style=&quot;margin:0px;margin-left:4px;&quot;&gt;&amp;nbsp; &amp;nbsp;date: String&lt;/p&gt;&lt;p style=&quot;margin:0px;margin-left:4px;&quot;&gt;&amp;nbsp; &amp;nbsp;year_month: String&lt;/p&gt;&lt;p style=&quot;margin:0px;margin-left:4px;&quot;&gt;&amp;nbsp; &amp;nbsp;month_term: String&lt;/p&gt;&lt;p style=&quot;margin:0px;margin-left:4px;&quot;&gt;&amp;nbsp; &amp;nbsp;time: String&lt;/p&gt;&lt;p style=&quot;margin:0px;margin-left:4px;&quot;&gt;&amp;nbsp; &amp;nbsp;day_term: String&lt;/p&gt;&lt;p style=&quot;margin:0px;margin-left:4px;&quot;&gt;&amp;nbsp; &amp;nbsp;number: String&lt;/p&gt;&lt;p style=&quot;margin:0px;margin-left:4px;&quot;&gt;&amp;nbsp; &amp;nbsp;note: String&lt;/p&gt;&lt;p style=&quot;margin:0px;margin-left:4px;&quot;&gt;&amp;nbsp; &amp;nbsp;lat: String,&lt;/p&gt;&lt;p style=&quot;margin:0px;margin-left:4px;&quot;&gt;&amp;nbsp; &amp;nbsp;lng: String,&lt;/p&gt;&lt;p style=&quot;margin:0px;margin-left:4px;&quot;&gt;&amp;nbsp; &amp;nbsp;latlng_type: String&lt;/p&gt;&lt;p style=&quot;margin:0px;margin-left:4px;&quot;&gt;&amp;nbsp; &amp;nbsp;is_contact: String&lt;/p&gt;&lt;p style=&quot;margin:0px;margin-left:4px;&quot;&gt;&amp;nbsp; &amp;nbsp;emergency_rank: String&lt;/p&gt;&lt;p style=&quot;margin:0px;margin-left:4px;&quot;&gt;&amp;nbsp; &amp;nbsp;is_public: Boolean&lt;/p&gt;&lt;p style=&quot;margin:0px;margin-left:4px;&quot;&gt;&amp;nbsp; &amp;nbsp;is_traffic_accident: Boolean&lt;/p&gt;&lt;p style=&quot;margin:0px;margin-left:4px;&quot;&gt;&amp;nbsp; &amp;nbsp;is_photo: Boolean&lt;/p&gt;&lt;p style=&quot;margin:0px;margin-left:4px;&quot;&gt;&amp;nbsp; &amp;nbsp;video_id: String&lt;/p&gt;&lt;p style=&quot;margin:0px;margin-left:4px;&quot;&gt;&amp;nbsp; &amp;nbsp;is_date: Boolean&lt;/p&gt;&lt;p style=&quot;margin:0px;margin-left:4px;&quot;&gt;&amp;nbsp; &amp;nbsp;is_time: Boolean&lt;/p&gt;&lt;p style=&quot;margin:0px;margin-left:4px;&quot;&gt;&amp;nbsp; &amp;nbsp;pole_id: String&lt;/p&gt;&lt;p style=&quot;margin:0px;margin-left:4px;&quot;&gt;&amp;nbsp; &amp;nbsp;pole_name: String&lt;/p&gt;&lt;p style=&quot;margin:0px;margin-left:4px;&quot;&gt;&amp;nbsp; &amp;nbsp;is_pole_koho: false,&lt;/p&gt;&lt;p style=&quot;margin:0px;margin-left:4px;&quot;&gt;&amp;nbsp; &amp;nbsp;large_category_id: String&lt;/p&gt;&lt;p style=&quot;margin:0px;margin-left:4px;&quot;&gt;&amp;nbsp; &amp;nbsp;small_category_id: String&lt;/p&gt;&lt;p style=&quot;margin:0px;margin-left:4px;&quot;&gt;&amp;nbsp; &amp;nbsp;animal_category_id: String,&lt;/p&gt;&lt;p style=&quot;margin:0px;margin-left:4px;&quot;&gt;&amp;nbsp; &amp;nbsp;animal_size_id: String,&lt;/p&gt;&lt;p style=&quot;margin:0px;margin-left:4px;&quot;&gt;&amp;nbsp; &amp;nbsp;animal_category_name: String&lt;/p&gt;&lt;p style=&quot;margin:0px;margin-left:4px;&quot;&gt;&amp;nbsp; &amp;nbsp;animal_detail_size: String&lt;/p&gt;&lt;p style=&quot;margin:0px;margin-left:4px;&quot;&gt;&amp;nbsp; &amp;nbsp;log_id: String&lt;/p&gt;&lt;p style=&quot;margin:0px;margin-left:4px;&quot;&gt;&amp;nbsp; &amp;nbsp;find_location: String&lt;/p&gt;&lt;p style=&quot;margin:0px;margin-left:4px;&quot;&gt;&amp;nbsp; &amp;nbsp;survival_state: String&lt;/p&gt;&lt;p style=&quot;margin:0px;margin-left:4px;&quot;&gt;&amp;nbsp; &amp;nbsp;is_evaluation: Boolean&lt;/p&gt;&lt;p style=&quot;margin:0px;margin-left:4px;&quot;&gt;&amp;nbsp; &amp;nbsp;created: Date&lt;/p&gt;&lt;p style=&quot;margin:0px;margin-left:4px;&quot;&gt;&amp;nbsp; &amp;nbsp;created_username: String&lt;/p&gt;&lt;p style=&quot;margin:0px;margin-left:4px;&quot;&gt;&amp;nbsp; &amp;nbsp;created_uid: null,&lt;/p&gt;&lt;p style=&quot;margin:0px;margin-left:4px;&quot;&gt;&amp;nbsp; &amp;nbsp;updated: null,&lt;/p&gt;&lt;p style=&quot;margin:0px;margin-left:4px;&quot;&gt;&amp;nbsp; &amp;nbsp;updated_username: null,&lt;/p&gt;&lt;p style=&quot;margin:0px;margin-left:4px;&quot;&gt;&amp;nbsp; &amp;nbsp;updated_uid: null,&lt;/p&gt;&lt;p style=&quot;margin:0px;margin-left:4px;&quot;&gt;&amp;nbsp; &amp;nbsp;user: {&lt;/p&gt;&lt;p style=&quot;margin:0px;margin-left:4px;&quot;&gt;&amp;nbsp; &amp;nbsp; role: String,&lt;/p&gt;&lt;p style=&quot;margin:0px;margin-left:4px;&quot;&gt;&amp;nbsp; &amp;nbsp; attribute_type: String,&lt;/p&gt;&lt;p style=&quot;margin:0px;margin-left:4px;&quot;&gt;&amp;nbsp; &amp;nbsp; username: String,&lt;/p&gt;&lt;p style=&quot;margin:0px;margin-left:4px;&quot;&gt;&amp;nbsp; &amp;nbsp; email: String,&lt;/p&gt;&lt;p style=&quot;margin:0px;margin-left:4px;&quot;&gt;&amp;nbsp; &amp;nbsp; phone: String,&lt;/p&gt;&lt;p style=&quot;margin:0px;margin-left:4px;&quot;&gt;&amp;nbsp; &amp;nbsp; uid: String,&lt;/p&gt;&lt;p style=&quot;margin:0px;margin-left:4px;&quot;&gt;&amp;nbsp; }&lt;/p&gt;&lt;p style=&quot;margin:0px;margin-left:4px;&quot;&gt;&amp;nbsp; reporter: {&lt;/p&gt;&lt;p style=&quot;margin:0px;margin-left:4px;&quot;&gt;&amp;nbsp; &amp;nbsp; name: String,&lt;/p&gt;&lt;p style=&quot;margin:0px;margin-left:4px;&quot;&gt;&amp;nbsp; &amp;nbsp; email: String,&lt;/p&gt;&lt;p style=&quot;margin:0px;margin-left:4px;&quot;&gt;&amp;nbsp; &amp;nbsp; phone: String,&lt;/p&gt;&lt;p style=&quot;margin:0px;margin-left:4px;&quot;&gt;&amp;nbsp; &amp;nbsp; note: String,&lt;/p&gt;&lt;p style=&quot;margin:0px;margin-left:4px;&quot;&gt;&amp;nbsp; &amp;nbsp; attribute_type: String&lt;/p&gt;&lt;p style=&quot;margin:0px;margin-left:4px;&quot;&gt;&amp;nbsp; }&lt;/p&gt;&lt;p style=&quot;margin:0px;margin-left:4px;&quot;&gt;}&lt;/p&gt;&lt;hr size=&quot;1&quot;&gt;&lt;p style=&quot;margin: 0px 0px 0px 4px;&quot;&gt;+ データを形成する()｜shapingData(): Object&lt;br&gt;&lt;/p&gt;&lt;p style=&quot;margin: 0px 0px 0px 4px;&quot;&gt;+ 検索｜matchCustom(params: Object, data: String):&amp;nbsp;&lt;/p&gt;&lt;p style=&quot;margin: 0px 0px 0px 4px;&quot;&gt;+ 日付データ表示形式を変換する()｜convertDate(): String&lt;br&gt;&lt;/p&gt;&lt;p style=&quot;margin: 0px 0px 0px 4px;&quot;&gt;+ カタカナをひらがなに変換する()｜katakanaToHiragana()&lt;/p&gt;&lt;p style=&quot;margin: 0px 0px 0px 4px;&quot;&gt;+ ひらがなをカタカナ&lt;span style=&quot;background-color: initial;&quot;&gt;に変換する()｜hiraganaToKatagana()&lt;/span&gt;&lt;/p&gt;" style="verticalAlign=top;align=left;overflow=fill;fontSize=12;fontFamily=Helvetica;html=1;" vertex="1" parent="1">
          <mxGeometry x="180" y="-2120" width="357" height="965" as="geometry" />
        </mxCell>
        <mxCell id="A2DtMqtqLgV5lxE1PWke-6" value="&lt;p style=&quot;margin:0px;margin-top:4px;text-align:center;&quot;&gt;&lt;i&gt;&amp;lt;&amp;lt;boundary&amp;gt;&amp;gt;&lt;/i&gt;&lt;b&gt;&lt;br&gt;&lt;/b&gt;&lt;/p&gt;&lt;p style=&quot;margin:0px;margin-top:4px;text-align:center;&quot;&gt;&lt;b&gt;ヤマネコ目撃情報一覧｜admin-index&lt;/b&gt;&lt;/p&gt;&lt;hr size=&quot;1&quot;&gt;&lt;div&gt;&amp;nbsp;+ dialog: Boolean&lt;/div&gt;&lt;div&gt;&amp;nbsp;+ fileList: Array&amp;nbsp;&lt;/div&gt;&lt;div&gt;&amp;nbsp;+ showUpload: Boolean&lt;/div&gt;&lt;div&gt;&amp;nbsp;+ subloader: Boolean&lt;/div&gt;&lt;div&gt;&amp;nbsp;+ total_count: Integer&lt;/div&gt;&lt;div&gt;&amp;nbsp;+ faild_pole_id_count: Integer&lt;/div&gt;&lt;div&gt;&amp;nbsp;+ last_title: String&lt;/div&gt;&lt;div&gt;&amp;nbsp;+ last_message: String&lt;/div&gt;&lt;div&gt;&amp;nbsp;+ animals: Array&lt;/div&gt;&lt;div&gt;&amp;nbsp;+ log_id: String&lt;/div&gt;&lt;hr size=&quot;1&quot;&gt;&lt;p style=&quot;margin:0px;margin-left:4px;&quot;&gt;+ DB更新後の再読込表示()｜afterUpdate(item: Object):&amp;nbsp;&lt;span style=&quot;background-color: initial;&quot;&gt;&lt;br&gt;&lt;/span&gt;&lt;/p&gt;&lt;p style=&quot;margin:0px;margin-left:4px;&quot;&gt;+ 表の行選択イベント()｜selectRow(row: Object):&amp;nbsp;&lt;br&gt;&lt;/p&gt;&lt;p style=&quot;margin:0px;margin-left:4px;&quot;&gt;&lt;/p&gt;&lt;br&gt;&amp;nbsp;+&amp;nbsp;電柱IDが存在する場合カウントする()｜poleidFaildCount(val: String): Boolean&lt;br&gt;&amp;nbsp;+ エクセルファイルをストレージにアップロードしデータを取得し確認画面を表示する()｜importExcel()&lt;br&gt;&amp;nbsp;+ 確認画面を閉じてDB更新のバッチ処理をする()｜saveBatch():&amp;nbsp;&lt;br&gt;&amp;nbsp;+ ポップアップ画面を閉じる()｜close():&amp;nbsp;&lt;br&gt;&amp;nbsp;+ 選択したファイルを保管する()｜handleAdd():&amp;nbsp;&lt;br&gt;&amp;nbsp;+ 選択したファイルを削除する()｜handleRemove():&amp;nbsp;" style="verticalAlign=top;align=left;overflow=fill;fontSize=12;fontFamily=Helvetica;html=1;" vertex="1" parent="1">
          <mxGeometry x="1400" y="-1240" width="595" height="360" as="geometry" />
        </mxCell>
        <mxCell id="A2DtMqtqLgV5lxE1PWke-10" value="&amp;lt;&amp;lt;create&amp;gt;&amp;gt;" style="endArrow=open;startArrow=none;endFill=0;startFill=0;endSize=8;html=1;verticalAlign=bottom;dashed=1;labelBackgroundColor=none;rounded=0;fontColor=#000000;sourcePerimeterSpacing=0;targetPerimeterSpacing=0;strokeWidth=2;jumpSize=6;entryX=1;entryY=0.5;entryDx=0;entryDy=0;" edge="1" parent="1" source="A2DtMqtqLgV5lxE1PWke-1" target="A2DtMqtqLgV5lxE1PWke-12">
          <mxGeometry x="-0.1894" y="-2" width="160" relative="1" as="geometry">
            <mxPoint x="-160" y="-1240" as="sourcePoint" />
            <mxPoint x="-230" y="-1240" as="targetPoint" />
            <mxPoint as="offset" />
          </mxGeometry>
        </mxCell>
        <mxCell id="A2DtMqtqLgV5lxE1PWke-11" value="1" style="endArrow=open;html=1;endSize=12;startArrow=diamondThin;startSize=14;startFill=0;align=left;verticalAlign=bottom;rounded=0;dashed=1;fontColor=#000000;sourcePerimeterSpacing=0;targetPerimeterSpacing=0;strokeWidth=2;jumpSize=6;exitX=0;exitY=0.5;exitDx=0;exitDy=0;" edge="1" parent="1" source="A2DtMqtqLgV5lxE1PWke-12" target="A2DtMqtqLgV5lxE1PWke-3">
          <mxGeometry x="-1" y="3" relative="1" as="geometry">
            <mxPoint x="-130" y="-1740" as="sourcePoint" />
            <mxPoint x="-120" y="-1830" as="targetPoint" />
          </mxGeometry>
        </mxCell>
        <mxCell id="A2DtMqtqLgV5lxE1PWke-12" value="&lt;p style=&quot;margin:0px;margin-top:4px;text-align:center;&quot;&gt;&lt;i&gt;&amp;lt;&amp;lt;entity&amp;gt;&amp;gt;&lt;/i&gt;&lt;br&gt;&lt;b&gt;希少動物&lt;/b&gt;&lt;b&gt;リスト｜rareanimals&lt;/b&gt;&lt;br&gt;&lt;/p&gt;&lt;hr size=&quot;1&quot;&gt;&lt;p style=&quot;margin:0px;margin-left:4px;&quot;&gt;+ items: Array&lt;/p&gt;&lt;p style=&quot;margin:0px;margin-left:4px;&quot;&gt;+ 電柱｜poles: Array&lt;/p&gt;&lt;div style=&quot;&quot;&gt;&lt;div&gt;&amp;nbsp;+ 分類群｜largeCategories: Array&lt;/div&gt;&lt;div&gt;&amp;nbsp;+ 小分類群｜smallCategories: Array&lt;/div&gt;&lt;div&gt;&amp;nbsp;+ 種名｜animalCategories: Array&lt;/div&gt;&lt;div&gt;&amp;nbsp;+ 大きさ｜animalSizes: Array&lt;/div&gt;&lt;div&gt;&amp;nbsp;+ 目撃現場｜findLocations: Array&lt;/div&gt;&lt;/div&gt;&lt;hr size=&quot;1&quot;&gt;&lt;p style=&quot;margin:0px;margin-left:4px;&quot;&gt;+ 小動物を初期化する()｜initialize():&amp;nbsp;&lt;/p&gt;&lt;p style=&quot;margin:0px;margin-left:4px;&quot;&gt;+ 小動物を追加する()｜addData(object):&amp;nbsp;&lt;br&gt;&lt;/p&gt;&lt;p style=&quot;margin:0px;margin-left:4px;&quot;&gt;+ 小動物を更新する()｜updateData(item: Object, key: String):&amp;nbsp;&lt;br&gt;&lt;/p&gt;&lt;p style=&quot;margin:0px;margin-left:4px;&quot;&gt;+ 小動物を更新をバッチ処理する()｜batchMasterData(item: Object, key: String):&amp;nbsp;&lt;br&gt;&lt;/p&gt;&lt;p style=&quot;margin:0px;margin-left:4px;&quot;&gt;+ 小動物を取得する()｜getData():&lt;/p&gt;&lt;p style=&quot;margin:0px;margin-left:4px;&quot;&gt;+ 小動物を削除する()｜removeData():&lt;br&gt;&lt;/p&gt;" style="verticalAlign=top;align=left;overflow=fill;fontSize=12;fontFamily=Helvetica;html=1;fontColor=#000000;" vertex="1" parent="1">
          <mxGeometry x="590" y="-1840" width="450" height="398" as="geometry" />
        </mxCell>
        <mxCell id="A2DtMqtqLgV5lxE1PWke-13" value="&amp;lt;&amp;lt;create&amp;gt;&amp;gt;" style="endArrow=open;html=1;rounded=0;align=center;verticalAlign=bottom;dashed=1;endFill=0;labelBackgroundColor=none;fontColor=#000000;startSize=22;endSize=6;sourcePerimeterSpacing=0;targetPerimeterSpacing=0;strokeWidth=2;jumpSize=6;entryX=0.5;entryY=1;entryDx=0;entryDy=0;" edge="1" parent="1" source="A2DtMqtqLgV5lxE1PWke-6" target="A2DtMqtqLgV5lxE1PWke-1">
          <mxGeometry relative="1" as="geometry">
            <mxPoint x="990" y="-1380" as="sourcePoint" />
            <mxPoint x="1150" y="-1380" as="targetPoint" />
          </mxGeometry>
        </mxCell>
        <mxCell id="A2DtMqtqLgV5lxE1PWke-14" value="ヤマネコ管理処理" style="resizable=0;html=1;align=center;verticalAlign=top;labelBackgroundColor=none;fontColor=#000000;" connectable="0" vertex="1" parent="A2DtMqtqLgV5lxE1PWke-13">
          <mxGeometry relative="1" as="geometry" />
        </mxCell>
        <mxCell id="A2DtMqtqLgV5lxE1PWke-15" value="Extends" style="endArrow=block;endSize=16;endFill=0;html=1;rounded=0;dashed=1;fontColor=#000000;sourcePerimeterSpacing=0;targetPerimeterSpacing=0;strokeWidth=2;jumpSize=6;entryX=0.75;entryY=1;entryDx=0;entryDy=0;exitX=0.75;exitY=0;exitDx=0;exitDy=0;" edge="1" parent="1" source="A2DtMqtqLgV5lxE1PWke-6" target="A2DtMqtqLgV5lxE1PWke-1">
          <mxGeometry width="160" relative="1" as="geometry">
            <mxPoint x="1290" y="-1360" as="sourcePoint" />
            <mxPoint x="1290" y="-1430" as="targetPoint" />
          </mxGeometry>
        </mxCell>
        <mxCell id="A2DtMqtqLgV5lxE1PWke-16" value="&lt;p style=&quot;margin:0px;margin-top:4px;text-align:center;&quot;&gt;&lt;i&gt;&amp;lt;&amp;lt;&amp;gt;&amp;gt;&lt;/i&gt;&lt;br&gt;&lt;b&gt;目撃情報データストア｜witness&lt;/b&gt;&lt;br&gt;&lt;/p&gt;&lt;hr size=&quot;1&quot;&gt;&lt;p style=&quot;margin:0px;margin-left:4px;&quot;&gt;+ animals: Array&lt;/p&gt;&lt;hr size=&quot;1&quot;&gt;&lt;p style=&quot;margin:0px;margin-left:4px;&quot;&gt;&lt;span style=&quot;background-color: initial;&quot;&gt;+ 特定の小動物を取得する()｜getAnimal(id: String): Object&lt;/span&gt;&lt;br&gt;&lt;/p&gt;&lt;p style=&quot;margin:0px;margin-left:4px;&quot;&gt;+ 小動物を取得する()｜getAnimals(): Array&lt;span style=&quot;background-color: initial;&quot;&gt;&lt;br&gt;&lt;/span&gt;&lt;/p&gt;&lt;p style=&quot;margin:0px;margin-left:4px;&quot;&gt;+ 小動物を追加する()｜createAnimal(params: Object): Boolean&lt;br&gt;&lt;/p&gt;&lt;p style=&quot;margin:0px;margin-left:4px;&quot;&gt;+ 小動物を削除する()｜deleteAnimal(params: Object):&lt;br&gt;&lt;/p&gt;" style="verticalAlign=top;align=left;overflow=fill;fontSize=12;fontFamily=Helvetica;html=1;fontColor=#000000;" vertex="1" parent="1">
          <mxGeometry x="1284" y="-2160" width="350" height="151.5" as="geometry" />
        </mxCell>
        <mxCell id="A2DtMqtqLgV5lxE1PWke-18" value="&amp;lt;&amp;lt;create&amp;gt;&amp;gt;" style="endArrow=open;html=1;rounded=0;align=center;verticalAlign=bottom;dashed=1;endFill=0;labelBackgroundColor=none;fontColor=#000000;startSize=22;endSize=6;sourcePerimeterSpacing=0;targetPerimeterSpacing=0;strokeWidth=2;jumpSize=6;exitX=0.25;exitY=0;exitDx=0;exitDy=0;" edge="1" parent="1" source="A2DtMqtqLgV5lxE1PWke-1" target="A2DtMqtqLgV5lxE1PWke-55">
          <mxGeometry relative="1" as="geometry">
            <mxPoint x="730" y="-1930" as="sourcePoint" />
            <mxPoint x="1355" y="-2158.5" as="targetPoint" />
          </mxGeometry>
        </mxCell>
        <mxCell id="A2DtMqtqLgV5lxE1PWke-19" value="一時キャッシュDB連携" style="resizable=0;html=1;align=center;verticalAlign=top;labelBackgroundColor=none;fontColor=#000000;" connectable="0" vertex="1" parent="A2DtMqtqLgV5lxE1PWke-18">
          <mxGeometry relative="1" as="geometry" />
        </mxCell>
        <mxCell id="A2DtMqtqLgV5lxE1PWke-20" value="&amp;lt;&amp;lt;create&amp;gt;&amp;gt;" style="endArrow=open;html=1;rounded=0;align=center;verticalAlign=bottom;dashed=1;endFill=0;labelBackgroundColor=none;fontColor=#000000;startSize=22;endSize=6;sourcePerimeterSpacing=0;targetPerimeterSpacing=0;strokeWidth=2;jumpSize=6;entryX=0.5;entryY=1;entryDx=0;entryDy=0;exitX=0.5;exitY=0;exitDx=0;exitDy=0;" edge="1" parent="1" source="A2DtMqtqLgV5lxE1PWke-1" target="A2DtMqtqLgV5lxE1PWke-16">
          <mxGeometry relative="1" as="geometry">
            <mxPoint x="650" y="-1930" as="sourcePoint" />
            <mxPoint x="1470" y="-2175" as="targetPoint" />
          </mxGeometry>
        </mxCell>
        <mxCell id="A2DtMqtqLgV5lxE1PWke-21" value="目撃情報DB連携" style="resizable=0;html=1;align=center;verticalAlign=top;labelBackgroundColor=none;fontColor=#000000;" connectable="0" vertex="1" parent="A2DtMqtqLgV5lxE1PWke-20">
          <mxGeometry relative="1" as="geometry" />
        </mxCell>
        <mxCell id="A2DtMqtqLgV5lxE1PWke-22" value="&lt;h1&gt;&lt;span style=&quot;font-size: 12px; font-weight: 400;&quot;&gt;&amp;nbsp;#&amp;nbsp;&lt;/span&gt;&lt;span style=&quot;font-size: 12px; font-weight: 400; background-color: initial;&quot;&gt;日付入力必須チェックする()｜&lt;/span&gt;&lt;span style=&quot;font-size: 12px; font-weight: 400; background-color: initial;&quot;&gt;dateErrors(): []&lt;/span&gt;&lt;br style=&quot;font-size: 12px; font-weight: 400;&quot;&gt;&lt;div style=&quot;font-size: 12px; font-weight: 400;&quot;&gt;&lt;div&gt;&amp;nbsp;#&amp;nbsp;あいまい日付入力&lt;span style=&quot;background-color: initial;&quot;&gt;必須&lt;/span&gt;&lt;span style=&quot;background-color: initial;&quot;&gt;チェック()｜&lt;/span&gt;&lt;span style=&quot;background-color: initial;&quot;&gt;date2Errors(): []&lt;/span&gt;&lt;/div&gt;&lt;div&gt;&amp;nbsp;#&amp;nbsp;あいまい日付月&lt;span style=&quot;background-color: initial;&quot;&gt;選択&lt;/span&gt;&lt;span style=&quot;background-color: initial;&quot;&gt;必須&lt;/span&gt;&lt;span style=&quot;background-color: initial;&quot;&gt;チェック()｜&lt;/span&gt;&lt;span style=&quot;background-color: initial;&quot;&gt;radioDayErrors(): []&lt;/span&gt;&lt;/div&gt;&lt;div&gt;&amp;nbsp;#&amp;nbsp;あいまい時刻時間帯選択&lt;span style=&quot;background-color: initial;&quot;&gt;必須&lt;/span&gt;&lt;span style=&quot;background-color: initial;&quot;&gt;チェック()｜&lt;/span&gt;&lt;span style=&quot;background-color: initial;&quot;&gt;radioTimeErrors(): []&lt;/span&gt;&lt;/div&gt;&lt;div&gt;&amp;nbsp;#&amp;nbsp;目撃状態選択&lt;span style=&quot;background-color: initial;&quot;&gt;必須&lt;/span&gt;&lt;span style=&quot;background-color: initial;&quot;&gt;チェック()｜&lt;/span&gt;&lt;span style=&quot;background-color: initial;&quot;&gt;radioErrors(): []&lt;/span&gt;&lt;/div&gt;&lt;div&gt;&amp;nbsp;#&amp;nbsp;目撃場所選択&lt;span style=&quot;background-color: initial;&quot;&gt;必須&lt;/span&gt;&lt;span style=&quot;background-color: initial;&quot;&gt;チェック()&lt;/span&gt;&lt;span style=&quot;background-color: initial;&quot;&gt;｜&lt;/span&gt;&lt;span style=&quot;background-color: initial;&quot;&gt;&amp;nbsp;&lt;/span&gt;&lt;span style=&quot;background-color: initial;&quot;&gt;radioFindLocationErrors(): []&lt;/span&gt;&lt;/div&gt;&lt;div&gt;&amp;nbsp;#&amp;nbsp;種名入力&lt;span style=&quot;background-color: initial;&quot;&gt;必須&lt;/span&gt;&lt;span style=&quot;background-color: initial;&quot;&gt;チェック()&lt;/span&gt;&lt;span style=&quot;background-color: initial;&quot;&gt;｜&lt;/span&gt;&lt;span style=&quot;background-color: initial;&quot;&gt;categorynameErrors(): []&lt;/span&gt;&lt;/div&gt;&lt;div&gt;&amp;nbsp;#&amp;nbsp;メールアドレス形式チェック()&lt;span style=&quot;background-color: initial;&quot;&gt;｜&lt;/span&gt;&lt;span style=&quot;background-color: initial;&quot;&gt;emailErrors(): []&lt;/span&gt;&lt;/div&gt;&lt;div&gt;&amp;nbsp;#&amp;nbsp;新規の分類群の選択&lt;span style=&quot;background-color: initial;&quot;&gt;必須&lt;/span&gt;&lt;span style=&quot;background-color: initial;&quot;&gt;チェック()&lt;/span&gt;&lt;span style=&quot;background-color: initial;&quot;&gt;｜&lt;/span&gt;&lt;span style=&quot;background-color: initial;&quot;&gt;newLargeCategoryErrors&lt;/span&gt;&lt;span style=&quot;background-color: initial;&quot;&gt;(): []&lt;/span&gt;&lt;/div&gt;&lt;div&gt;&amp;nbsp;#&amp;nbsp;新規の小分類群の選択&lt;span style=&quot;background-color: initial;&quot;&gt;必須&lt;/span&gt;&lt;span style=&quot;background-color: initial;&quot;&gt;チェック()&lt;/span&gt;&lt;span style=&quot;background-color: initial;&quot;&gt;｜&lt;/span&gt;&lt;span style=&quot;background-color: initial;&quot;&gt;newSmallCategoryErrors(): []&lt;/span&gt;&lt;/div&gt;&lt;div&gt;&amp;nbsp;#&amp;nbsp;新規の種名の選択&lt;span style=&quot;background-color: initial;&quot;&gt;必須&lt;/span&gt;&lt;span style=&quot;background-color: initial;&quot;&gt;チェック()&lt;/span&gt;&lt;span style=&quot;background-color: initial;&quot;&gt;｜&lt;/span&gt;&lt;span style=&quot;background-color: initial;&quot;&gt;newAnimalCategoryErrors(): []&lt;/span&gt;&lt;/div&gt;&lt;div&gt;&lt;br&gt;&lt;/div&gt;&lt;div&gt;&amp;nbsp;#&amp;nbsp;編集の小分類群で大きさの選択肢を取得する()&lt;span style=&quot;background-color: initial;&quot;&gt;｜&lt;/span&gt;&lt;span style=&quot;background-color: initial;&quot;&gt;editAanimalSizes(): []&lt;/span&gt;&lt;/div&gt;&lt;div&gt;&lt;br&gt;&lt;/div&gt;&lt;div&gt;&lt;b&gt;&amp;nbsp;# 分類群の選択肢を取得()&lt;span style=&quot;background-color: initial;&quot;&gt;｜&lt;/span&gt;&lt;span style=&quot;background-color: initial;&quot;&gt;newLargeCategories(): []&lt;/span&gt;&lt;/b&gt;&lt;/div&gt;&lt;div&gt;&lt;br&gt;&lt;/div&gt;&lt;div&gt;&lt;span style=&quot;background-color: initial;&quot;&gt;&amp;nbsp;&lt;/span&gt;#&lt;span style=&quot;background-color: initial;&quot;&gt;&amp;nbsp;新規の分類群で小分類群の選択肢を取得する()&lt;/span&gt;&lt;span style=&quot;background-color: initial;&quot;&gt;｜&lt;/span&gt;&lt;span style=&quot;background-color: initial;&quot;&gt;newFilterSmallCategories(): []&lt;br&gt;&lt;/span&gt;&lt;/div&gt;&lt;div&gt;&lt;span style=&quot;background-color: initial;&quot;&gt;&amp;nbsp;&lt;/span&gt;#&lt;span style=&quot;background-color: initial;&quot;&gt;&amp;nbsp;新規の分類群と&lt;/span&gt;&lt;span style=&quot;background-color: initial;&quot;&gt;小分類群で種名の選択肢を取得する()&lt;/span&gt;&lt;span style=&quot;background-color: initial;&quot;&gt;｜&lt;/span&gt;&lt;span style=&quot;background-color: initial;&quot;&gt;newFilterAnimalCategories(): []&lt;/span&gt;&lt;/div&gt;&lt;/div&gt;&lt;span style=&quot;font-size: 12px; font-weight: 400; background-color: initial;&quot;&gt;&amp;nbsp;+&amp;nbsp;&lt;/span&gt;&lt;span style=&quot;font-size: 12px; font-weight: 400;&quot;&gt;位置情報の共有方法を変更する()｜&lt;/span&gt;&lt;span style=&quot;font-size: 12px; font-weight: 400; background-color: initial;&quot;&gt;changeTileButton()&lt;/span&gt;&lt;br style=&quot;font-size: 12px; font-weight: 400;&quot;&gt;&lt;span style=&quot;font-size: 12px; font-weight: 400;&quot;&gt;&amp;nbsp;+ 位置情報を更新する()｜&lt;/span&gt;&lt;span style=&quot;font-size: 12px; font-weight: 400; background-color: initial;&quot;&gt;&amp;nbsp;childLatlng()&lt;br&gt;&lt;/span&gt;&lt;span style=&quot;font-size: 12px; font-weight: 400;&quot;&gt;&amp;nbsp;+ メッセージを表示する()｜&lt;/span&gt;&lt;span style=&quot;font-size: 12px; font-weight: 400; background-color: initial;&quot;&gt;messageChild(msg: String, color: String)&lt;br&gt;&lt;/span&gt;&lt;span style=&quot;font-size: 12px; font-weight: 400;&quot;&gt;&amp;nbsp;+ 位置情報を初期化する()｜&lt;/span&gt;&lt;span style=&quot;font-size: 12px; font-weight: 400; background-color: initial;&quot;&gt;resetLatlng()&lt;/span&gt;&lt;br&gt;&lt;/h1&gt;" style="text;html=1;strokeColor=none;fillColor=none;spacing=5;spacingTop=-20;whiteSpace=wrap;overflow=hidden;rounded=0;fontColor=#000000;" vertex="1" parent="1">
          <mxGeometry x="1690" y="-2280" width="420" height="50" as="geometry" />
        </mxCell>
        <mxCell id="A2DtMqtqLgV5lxE1PWke-23" value="&lt;p style=&quot;margin:0px;margin-top:4px;text-align:center;&quot;&gt;&lt;i&gt;&amp;lt;&amp;lt;&amp;gt;&amp;gt;&lt;/i&gt;&lt;br&gt;&lt;b&gt;マスターストア｜master&lt;/b&gt;&lt;br&gt;&lt;/p&gt;&lt;hr size=&quot;1&quot;&gt;&lt;p style=&quot;margin:0px;margin-left:4px;&quot;&gt;+ large_categories: Array&lt;/p&gt;&lt;p style=&quot;margin:0px;margin-left:4px;&quot;&gt;+ small_categories: Array&lt;br&gt;&lt;/p&gt;&lt;p style=&quot;margin:0px;margin-left:4px;&quot;&gt;+ animal_categories: Array&lt;br&gt;&lt;/p&gt;&lt;p style=&quot;margin:0px;margin-left:4px;&quot;&gt;+ find_locations: Array&lt;br&gt;&lt;/p&gt;&lt;p style=&quot;margin:0px;margin-left:4px;&quot;&gt;+ animal_sizes: Array&lt;br&gt;&lt;/p&gt;&lt;hr size=&quot;1&quot;&gt;&lt;p style=&quot;margin:0px;margin-left:4px;&quot;&gt;+ 特定の分類を取得する()｜getLargeCategory():&lt;span style=&quot;background-color: initial;&quot;&gt;&lt;br&gt;&lt;/span&gt;&lt;/p&gt;&lt;p style=&quot;margin:0px;margin-left:4px;&quot;&gt;&lt;span style=&quot;background-color: initial;&quot;&gt;+ 分類を取得する()｜getLargeCategories():&lt;/span&gt;&lt;/p&gt;&lt;p style=&quot;margin:0px;margin-left:4px;&quot;&gt;+ 特定の小分類を取得する()｜getSmallCategory():&lt;br&gt;&lt;/p&gt;&lt;p style=&quot;margin:0px;margin-left:4px;&quot;&gt;+ 小分類を取得する()｜getSmallCategories():&lt;span style=&quot;background-color: initial;&quot;&gt;&lt;br&gt;&lt;/span&gt;&lt;/p&gt;&lt;p style=&quot;margin:0px;margin-left:4px;&quot;&gt;+ 特定の種名を取得する()｜getAnimalCategory():&lt;br&gt;&lt;/p&gt;&lt;p style=&quot;margin:0px;margin-left:4px;&quot;&gt;+ 種名を取得する()｜getAnimalCategories():&lt;br&gt;&lt;/p&gt;&lt;p style=&quot;margin:0px;margin-left:4px;&quot;&gt;+ 目撃現場を取得する()｜getFindLocations():&lt;br&gt;&lt;/p&gt;&lt;p style=&quot;margin:0px;margin-left:4px;&quot;&gt;+ 大きさを取得する()｜getAnimalSizes():&lt;br&gt;&lt;/p&gt;" style="verticalAlign=top;align=left;overflow=fill;fontSize=12;fontFamily=Helvetica;html=1;fontColor=#000000;" vertex="1" parent="1">
          <mxGeometry x="1690" y="-2221.5" width="320" height="261.5" as="geometry" />
        </mxCell>
        <mxCell id="A2DtMqtqLgV5lxE1PWke-24" value="&amp;lt;&amp;lt;create&amp;gt;&amp;gt;" style="endArrow=open;html=1;rounded=0;align=center;verticalAlign=bottom;dashed=1;endFill=0;labelBackgroundColor=none;fontColor=#000000;startSize=22;endSize=6;sourcePerimeterSpacing=0;targetPerimeterSpacing=0;strokeWidth=2;jumpSize=6;exitX=0.75;exitY=0;exitDx=0;exitDy=0;entryX=0.5;entryY=1;entryDx=0;entryDy=0;" edge="1" parent="1" source="A2DtMqtqLgV5lxE1PWke-1" target="A2DtMqtqLgV5lxE1PWke-23">
          <mxGeometry relative="1" as="geometry">
            <mxPoint x="760" y="-1920" as="sourcePoint" />
            <mxPoint x="840" y="-2149" as="targetPoint" />
          </mxGeometry>
        </mxCell>
        <mxCell id="A2DtMqtqLgV5lxE1PWke-25" value="区間マスターDB連携" style="resizable=0;html=1;align=center;verticalAlign=top;labelBackgroundColor=none;fontColor=#000000;" connectable="0" vertex="1" parent="A2DtMqtqLgV5lxE1PWke-24">
          <mxGeometry relative="1" as="geometry" />
        </mxCell>
        <mxCell id="A2DtMqtqLgV5lxE1PWke-26" value="&lt;p style=&quot;margin:0px;margin-top:4px;text-align:center;&quot;&gt;&lt;i&gt;&amp;lt;&amp;lt;bind&amp;gt;&amp;gt;&lt;/i&gt;&lt;br&gt;&lt;b&gt;目撃現場の位置情報登録｜dialog-latlnginput&lt;/b&gt;&lt;/p&gt;&lt;hr size=&quot;1&quot;&gt;&lt;div&gt;&amp;nbsp;+ dialog: Boolean&lt;/div&gt;&lt;div&gt;&amp;nbsp;+ fileList: Array&amp;nbsp;&lt;/div&gt;&lt;div&gt;&amp;nbsp;+ showUpload: Boolean&lt;/div&gt;&lt;div&gt;&amp;nbsp;+ subloader: Boolean&lt;/div&gt;&lt;div&gt;&amp;nbsp;+ total_count: Integer&lt;/div&gt;&lt;div&gt;&amp;nbsp;+ faild_pole_id_count: Integer&lt;/div&gt;&lt;div&gt;&amp;nbsp;+ last_title: String&lt;/div&gt;&lt;div&gt;&amp;nbsp;+ last_message: String&lt;/div&gt;&lt;div&gt;&amp;nbsp;+ animals: Array&lt;/div&gt;&lt;div&gt;&amp;nbsp;+ log_id: String&lt;/div&gt;&lt;hr size=&quot;1&quot;&gt;&lt;p style=&quot;margin:0px;margin-left:4px;&quot;&gt;&lt;span style=&quot;background-color: initial;&quot;&gt;+ ポップアップ画面を表示する()｜open():&amp;nbsp;&lt;/span&gt;&lt;/p&gt;&amp;nbsp;" style="verticalAlign=top;align=left;overflow=fill;fontSize=12;fontFamily=Helvetica;html=1;" vertex="1" parent="1">
          <mxGeometry x="2120" y="-1169" width="380" height="249" as="geometry" />
        </mxCell>
        <mxCell id="A2DtMqtqLgV5lxE1PWke-27" value="&lt;p style=&quot;margin:0px;margin-top:4px;text-align:center;&quot;&gt;&lt;i&gt;&amp;lt;&amp;lt;bind&amp;gt;&amp;gt;&lt;/i&gt;&lt;br&gt;&lt;b&gt;位置情報をマップ表示&lt;/b&gt;&lt;b style=&quot;background-color: initial;&quot;&gt;｜map&lt;/b&gt;&lt;/p&gt;&lt;hr size=&quot;1&quot;&gt;&lt;div&gt;&amp;nbsp;+ dialog: Boolean&lt;/div&gt;&lt;div&gt;&amp;nbsp;+ fileList: Array&amp;nbsp;&lt;/div&gt;&lt;div&gt;&amp;nbsp;+ showUpload: Boolean&lt;/div&gt;&lt;div&gt;&amp;nbsp;+ subloader: Boolean&lt;/div&gt;&lt;div&gt;&amp;nbsp;+ total_count: Integer&lt;/div&gt;&lt;div&gt;&amp;nbsp;+ faild_pole_id_count: Integer&lt;/div&gt;&lt;div&gt;&amp;nbsp;+ last_title: String&lt;/div&gt;&lt;div&gt;&amp;nbsp;+ last_message: String&lt;/div&gt;&lt;div&gt;&amp;nbsp;+ animals: Array&lt;/div&gt;&lt;div&gt;&amp;nbsp;+ log_id: String&lt;/div&gt;&lt;hr size=&quot;1&quot;&gt;&lt;p style=&quot;margin:0px;margin-left:4px;&quot;&gt;&lt;span style=&quot;background-color: initial;&quot;&gt;+ ポップアップ画面を表示する()｜open():&amp;nbsp;&lt;/span&gt;&lt;/p&gt;&amp;nbsp;" style="verticalAlign=top;align=left;overflow=fill;fontSize=12;fontFamily=Helvetica;html=1;" vertex="1" parent="1">
          <mxGeometry x="2680" y="-1360" width="360" height="310" as="geometry" />
        </mxCell>
        <mxCell id="A2DtMqtqLgV5lxE1PWke-28" value="&lt;p style=&quot;margin:0px;margin-top:4px;text-align:center;&quot;&gt;&lt;i&gt;&amp;lt;&amp;lt;bind&amp;gt;&amp;gt;&lt;/i&gt;&lt;br&gt;&lt;b style=&quot;background-color: initial;&quot;&gt;選択&lt;/b&gt;&lt;b style=&quot;background-color: initial;&quot;&gt;メニューバー｜options-bar&lt;/b&gt;&lt;/p&gt;&lt;hr size=&quot;1&quot;&gt;&lt;div&gt;&amp;nbsp;+ dialog: Boolean&lt;/div&gt;&lt;div&gt;&amp;nbsp;+&amp;nbsp;&lt;br&gt;&lt;/div&gt;&lt;hr size=&quot;1&quot;&gt;&lt;p style=&quot;margin:0px;margin-left:4px;&quot;&gt;&lt;span style=&quot;background-color: initial;&quot;&gt;+ ポップアップ画面を表示する()｜open():&amp;nbsp;&lt;/span&gt;&lt;/p&gt;&amp;nbsp;" style="verticalAlign=top;align=left;overflow=fill;fontSize=12;fontFamily=Helvetica;html=1;" vertex="1" parent="1">
          <mxGeometry x="1507.5" y="-760" width="380" height="250" as="geometry" />
        </mxCell>
        <mxCell id="A2DtMqtqLgV5lxE1PWke-32" value="&amp;lt;&amp;lt;create&amp;gt;&amp;gt;" style="endArrow=open;html=1;rounded=0;align=center;verticalAlign=bottom;dashed=1;endFill=0;labelBackgroundColor=none;fontColor=#000000;startSize=22;endSize=6;sourcePerimeterSpacing=0;targetPerimeterSpacing=0;strokeWidth=2;jumpSize=6;entryX=0;entryY=0.25;entryDx=0;entryDy=0;exitX=1;exitY=0.75;exitDx=0;exitDy=0;" edge="1" parent="1" source="A2DtMqtqLgV5lxE1PWke-6" target="A2DtMqtqLgV5lxE1PWke-26">
          <mxGeometry relative="1" as="geometry">
            <mxPoint x="1662.5" y="-1300" as="sourcePoint" />
            <mxPoint x="1860" y="-1500" as="targetPoint" />
          </mxGeometry>
        </mxCell>
        <mxCell id="A2DtMqtqLgV5lxE1PWke-33" value="位置情報を共有する" style="resizable=0;html=1;align=center;verticalAlign=top;labelBackgroundColor=none;fontColor=#000000;" connectable="0" vertex="1" parent="A2DtMqtqLgV5lxE1PWke-32">
          <mxGeometry relative="1" as="geometry" />
        </mxCell>
        <mxCell id="A2DtMqtqLgV5lxE1PWke-34" value="&amp;lt;&amp;lt;create&amp;gt;&amp;gt;" style="endArrow=open;html=1;rounded=0;align=center;verticalAlign=bottom;dashed=1;endFill=0;labelBackgroundColor=none;fontColor=#000000;startSize=22;endSize=6;sourcePerimeterSpacing=0;targetPerimeterSpacing=0;strokeWidth=2;jumpSize=6;exitX=1;exitY=0.75;exitDx=0;exitDy=0;entryX=0;entryY=0.25;entryDx=0;entryDy=0;" edge="1" parent="1" source="A2DtMqtqLgV5lxE1PWke-38" target="A2DtMqtqLgV5lxE1PWke-27">
          <mxGeometry relative="1" as="geometry">
            <mxPoint x="2332.3999999999996" y="-1524.2999999999997" as="sourcePoint" />
            <mxPoint x="2330" y="-1780" as="targetPoint" />
          </mxGeometry>
        </mxCell>
        <mxCell id="A2DtMqtqLgV5lxE1PWke-35" value="位置情報と電柱紐付け" style="resizable=0;html=1;align=center;verticalAlign=top;labelBackgroundColor=none;fontColor=#000000;" connectable="0" vertex="1" parent="A2DtMqtqLgV5lxE1PWke-34">
          <mxGeometry relative="1" as="geometry" />
        </mxCell>
        <mxCell id="A2DtMqtqLgV5lxE1PWke-36" value="&amp;lt;&amp;lt;create&amp;gt;&amp;gt;" style="endArrow=open;html=1;rounded=0;align=center;verticalAlign=bottom;dashed=1;endFill=0;labelBackgroundColor=none;fontColor=#000000;startSize=22;endSize=6;sourcePerimeterSpacing=0;targetPerimeterSpacing=0;strokeWidth=2;jumpSize=6;entryX=0;entryY=0.75;entryDx=0;entryDy=0;" edge="1" parent="1" source="A2DtMqtqLgV5lxE1PWke-26" target="A2DtMqtqLgV5lxE1PWke-27">
          <mxGeometry relative="1" as="geometry">
            <mxPoint x="2250" y="-910" as="sourcePoint" />
            <mxPoint x="2340" y="-1770" as="targetPoint" />
          </mxGeometry>
        </mxCell>
        <mxCell id="A2DtMqtqLgV5lxE1PWke-37" value="位置情報と電柱紐付け" style="resizable=0;html=1;align=center;verticalAlign=top;labelBackgroundColor=none;fontColor=#000000;" connectable="0" vertex="1" parent="A2DtMqtqLgV5lxE1PWke-36">
          <mxGeometry relative="1" as="geometry" />
        </mxCell>
        <mxCell id="A2DtMqtqLgV5lxE1PWke-38" value="&lt;p style=&quot;margin:0px;margin-top:4px;text-align:center;&quot;&gt;&lt;i&gt;&amp;lt;&amp;lt;bind&amp;gt;&amp;gt;&lt;/i&gt;&lt;br&gt;&lt;b&gt;画像アップロード処理｜dialog-picture&lt;/b&gt;&lt;/p&gt;&lt;hr size=&quot;1&quot;&gt;&lt;div&gt;&lt;span style=&quot;background-color: initial;&quot;&gt;&amp;nbsp;+ dialog: Boolean&lt;/span&gt;&lt;br&gt;&lt;/div&gt;&lt;div&gt;&amp;nbsp;+ form: Array&lt;span style=&quot;background-color: initial;&quot;&gt;&lt;br&gt;&lt;/span&gt;&lt;/div&gt;&lt;div&gt;&amp;nbsp;+ mapCenter: Array&amp;nbsp;&lt;/div&gt;&lt;div&gt;&lt;span style=&quot;background-color: initial;&quot;&gt;&amp;nbsp;+ isNone: Boolean&lt;/span&gt;&lt;/div&gt;&lt;hr size=&quot;1&quot;&gt;&lt;p style=&quot;margin:0px;margin-left:4px;&quot;&gt;&lt;span style=&quot;background-color: initial;&quot;&gt;+ ポップアップ画面を閉じる()｜open():&amp;nbsp;&lt;/span&gt;&lt;/p&gt;&lt;p style=&quot;margin:0px;margin-left:4px;&quot;&gt;+ ポップアップ画面を閉じる()｜close():&amp;nbsp;&lt;span style=&quot;background-color: initial;&quot;&gt;&lt;br&gt;&lt;/span&gt;&lt;/p&gt;&amp;nbsp;+ 画像を登録する()｜add()&lt;br&gt;&amp;nbsp;&lt;span style=&quot;background-color: initial;&quot;&gt;+ 画像を削除&lt;/span&gt;する()｜&lt;span style=&quot;background-color: initial;&quot;&gt;remove()&lt;/span&gt;" style="verticalAlign=top;align=left;overflow=fill;fontSize=12;fontFamily=Helvetica;html=1;" vertex="1" parent="1">
          <mxGeometry x="2120" y="-1442" width="320" height="200" as="geometry" />
        </mxCell>
        <mxCell id="A2DtMqtqLgV5lxE1PWke-39" value="&amp;lt;&amp;lt;create&amp;gt;&amp;gt;" style="endArrow=open;html=1;rounded=0;align=center;verticalAlign=bottom;dashed=1;endFill=0;labelBackgroundColor=none;fontColor=#000000;startSize=22;endSize=6;sourcePerimeterSpacing=0;targetPerimeterSpacing=0;strokeWidth=2;jumpSize=6;entryX=0;entryY=0.5;entryDx=0;entryDy=0;exitX=1;exitY=0;exitDx=0;exitDy=0;" edge="1" parent="1" source="A2DtMqtqLgV5lxE1PWke-6" target="A2DtMqtqLgV5lxE1PWke-38">
          <mxGeometry relative="1" as="geometry">
            <mxPoint x="1640" y="-1585" as="sourcePoint" />
            <mxPoint x="1837.5" y="-1785" as="targetPoint" />
          </mxGeometry>
        </mxCell>
        <mxCell id="A2DtMqtqLgV5lxE1PWke-40" value="画像アップロード処理" style="resizable=0;html=1;align=center;verticalAlign=top;labelBackgroundColor=none;fontColor=#000000;" connectable="0" vertex="1" parent="A2DtMqtqLgV5lxE1PWke-39">
          <mxGeometry relative="1" as="geometry" />
        </mxCell>
        <mxCell id="A2DtMqtqLgV5lxE1PWke-43" value="&lt;p style=&quot;margin:0px;margin-top:4px;text-align:center;&quot;&gt;&lt;i&gt;&amp;lt;&amp;lt;bind&amp;gt;&amp;gt;&lt;/i&gt;&lt;br&gt;&lt;b&gt;画像処理｜picture-window&lt;/b&gt;&lt;/p&gt;&lt;hr size=&quot;1&quot;&gt;&lt;div&gt;&lt;span style=&quot;background-color: initial;&quot;&gt;&amp;nbsp;+ dialog: Boolean&lt;/span&gt;&lt;br&gt;&lt;/div&gt;&lt;div&gt;&amp;nbsp;+ form: Array&lt;span style=&quot;background-color: initial;&quot;&gt;&lt;br&gt;&lt;/span&gt;&lt;/div&gt;&lt;div&gt;&amp;nbsp;+ fileList: Array&amp;nbsp;&lt;/div&gt;&lt;div&gt;&lt;span style=&quot;background-color: initial;&quot;&gt;&amp;nbsp;+ isLatlng: Boolean&lt;/span&gt;&lt;/div&gt;&lt;div&gt;&lt;span style=&quot;background-color: initial;&quot;&gt;&amp;nbsp;+ removeFile: Object&lt;/span&gt;&lt;/div&gt;&lt;hr size=&quot;1&quot;&gt;&lt;p style=&quot;margin:0px;margin-left:4px;&quot;&gt;&lt;span style=&quot;background-color: initial;&quot;&gt;+ 画像を読み込む()｜loadFiles(files: Array):&amp;nbsp;&lt;/span&gt;&lt;/p&gt;&lt;p style=&quot;margin:0px;margin-left:4px;&quot;&gt;+ 画像を圧縮し保有する()｜handleAdd(file: Object, fileList: Array):&amp;nbsp;&lt;span style=&quot;background-color: initial;&quot;&gt;&lt;br&gt;&lt;/span&gt;&lt;/p&gt;&amp;nbsp;+ 保有している画像を削除する()｜&lt;span style=&quot;background-color: initial;&quot;&gt;handleRemove&lt;/span&gt;&lt;br&gt;&amp;nbsp;+ アップロード画像を削除する()｜&lt;span style=&quot;background-color: initial;&quot;&gt;executeRemove&lt;/span&gt;&lt;br&gt;&amp;nbsp;+ HEIC画像をJPEGに変換する()｜&lt;span style=&quot;background-color: initial;&quot;&gt;heicToJpg&lt;/span&gt;&lt;br&gt;&amp;nbsp;+ 画像の名称を作成する()｜&lt;span style=&quot;background-color: initial;&quot;&gt;baseName&lt;/span&gt;&lt;br&gt;&amp;nbsp;+ 60進数から10進数に変換する()｜&lt;span style=&quot;background-color: initial;&quot;&gt;get_10_from_60_exif&lt;/span&gt;&lt;br&gt;&amp;nbsp;+ 画像を登録する()｜add()&lt;br&gt;&amp;nbsp;&lt;span style=&quot;background-color: initial;&quot;&gt;+ 画像を削除&lt;/span&gt;する()｜&lt;span style=&quot;background-color: initial;&quot;&gt;remove()&lt;/span&gt;" style="verticalAlign=top;align=left;overflow=fill;fontSize=12;fontFamily=Helvetica;html=1;" vertex="1" parent="1">
          <mxGeometry x="2560" y="-1680" width="480" height="280" as="geometry" />
        </mxCell>
        <mxCell id="A2DtMqtqLgV5lxE1PWke-44" value="&amp;lt;&amp;lt;slot&amp;gt;&amp;gt;" style="endArrow=open;html=1;rounded=0;align=center;verticalAlign=bottom;dashed=1;endFill=0;labelBackgroundColor=none;fontColor=#000000;startSize=22;endSize=6;sourcePerimeterSpacing=0;targetPerimeterSpacing=0;strokeWidth=2;jumpSize=6;entryX=0;entryY=0.75;entryDx=0;entryDy=0;exitX=1;exitY=0.5;exitDx=0;exitDy=0;" edge="1" parent="1" source="A2DtMqtqLgV5lxE1PWke-38" target="A2DtMqtqLgV5lxE1PWke-43">
          <mxGeometry x="0.1429" relative="1" as="geometry">
            <mxPoint x="2100" y="-1860" as="sourcePoint" />
            <mxPoint x="2217.5" y="-1810" as="targetPoint" />
            <mxPoint as="offset" />
          </mxGeometry>
        </mxCell>
        <mxCell id="A2DtMqtqLgV5lxE1PWke-45" value="画像処理" style="resizable=0;html=1;align=center;verticalAlign=top;labelBackgroundColor=none;fontColor=#000000;" connectable="0" vertex="1" parent="A2DtMqtqLgV5lxE1PWke-44">
          <mxGeometry relative="1" as="geometry" />
        </mxCell>
        <mxCell id="A2DtMqtqLgV5lxE1PWke-46" value="&amp;lt;&amp;lt;bind&amp;gt;&amp;gt;" style="endArrow=open;html=1;rounded=0;align=center;verticalAlign=bottom;dashed=1;endFill=0;labelBackgroundColor=none;fontColor=#000000;startSize=22;endSize=6;sourcePerimeterSpacing=0;targetPerimeterSpacing=0;strokeWidth=2;jumpSize=6;exitX=0.5;exitY=1;exitDx=0;exitDy=0;" edge="1" parent="1" source="A2DtMqtqLgV5lxE1PWke-6" target="A2DtMqtqLgV5lxE1PWke-28">
          <mxGeometry relative="1" as="geometry">
            <mxPoint x="1662.4999999999995" y="-1120.0000000000005" as="sourcePoint" />
            <mxPoint x="1980" y="-845.2500000000005" as="targetPoint" />
          </mxGeometry>
        </mxCell>
        <mxCell id="A2DtMqtqLgV5lxE1PWke-47" value="位置情報を共有する" style="resizable=0;html=1;align=center;verticalAlign=top;labelBackgroundColor=none;fontColor=#000000;" connectable="0" vertex="1" parent="A2DtMqtqLgV5lxE1PWke-46">
          <mxGeometry relative="1" as="geometry" />
        </mxCell>
        <mxCell id="A2DtMqtqLgV5lxE1PWke-48" value="&lt;p style=&quot;margin:0px;margin-top:4px;text-align:center;&quot;&gt;&lt;i&gt;&amp;lt;&amp;lt;bind&amp;gt;&amp;gt;&lt;/i&gt;&lt;br&gt;&lt;b&gt;動画アップロード処理｜dialog-video&lt;/b&gt;&lt;/p&gt;&lt;hr size=&quot;1&quot;&gt;&lt;div&gt;&lt;span style=&quot;background-color: initial;&quot;&gt;&amp;nbsp;+ dialog: Boolean&lt;/span&gt;&lt;br&gt;&lt;/div&gt;&lt;div&gt;&amp;nbsp;+ form: Array&lt;span style=&quot;background-color: initial;&quot;&gt;&lt;br&gt;&lt;/span&gt;&lt;/div&gt;&lt;div&gt;&amp;nbsp;+ mapCenter: Array&amp;nbsp;&lt;/div&gt;&lt;div&gt;&lt;span style=&quot;background-color: initial;&quot;&gt;&amp;nbsp;+ isNone: Boolean&lt;/span&gt;&lt;/div&gt;&lt;hr size=&quot;1&quot;&gt;&lt;p style=&quot;margin:0px;margin-left:4px;&quot;&gt;&lt;span style=&quot;background-color: initial;&quot;&gt;+ ポップアップ画面を閉じる()｜open():&amp;nbsp;&lt;/span&gt;&lt;/p&gt;&lt;p style=&quot;margin:0px;margin-left:4px;&quot;&gt;+ ポップアップ画面を閉じる()｜close():&amp;nbsp;&lt;span style=&quot;background-color: initial;&quot;&gt;&lt;br&gt;&lt;/span&gt;&lt;/p&gt;&amp;nbsp;+ 画像を登録する()｜add()&lt;br&gt;&amp;nbsp;&lt;span style=&quot;background-color: initial;&quot;&gt;+ 画像を削除&lt;/span&gt;する()｜&lt;span style=&quot;background-color: initial;&quot;&gt;remove()&lt;/span&gt;" style="verticalAlign=top;align=left;overflow=fill;fontSize=12;fontFamily=Helvetica;html=1;" vertex="1" parent="1">
          <mxGeometry x="1960" y="-1760" width="380" height="200" as="geometry" />
        </mxCell>
        <mxCell id="A2DtMqtqLgV5lxE1PWke-49" value="画像取消の確認メッセージ" style="shape=note2;boundedLbl=1;whiteSpace=wrap;html=1;size=25;verticalAlign=top;align=center;" vertex="1" parent="1">
          <mxGeometry x="2960" y="-1800" width="290" height="60" as="geometry" />
        </mxCell>
        <mxCell id="A2DtMqtqLgV5lxE1PWke-50" value="&amp;lt;&amp;lt;slot&amp;gt;&amp;gt;" style="endArrow=open;html=1;rounded=0;align=center;verticalAlign=bottom;dashed=1;endFill=0;labelBackgroundColor=none;fontColor=#000000;startSize=22;endSize=6;sourcePerimeterSpacing=0;targetPerimeterSpacing=0;strokeWidth=2;jumpSize=6;exitX=1;exitY=0;exitDx=0;exitDy=0;" edge="1" parent="1" source="A2DtMqtqLgV5lxE1PWke-43" target="A2DtMqtqLgV5lxE1PWke-49">
          <mxGeometry x="0.1429" relative="1" as="geometry">
            <mxPoint x="2920" y="-2050" as="sourcePoint" />
            <mxPoint x="3080" y="-2110" as="targetPoint" />
            <mxPoint as="offset" />
          </mxGeometry>
        </mxCell>
        <mxCell id="A2DtMqtqLgV5lxE1PWke-51" value="画像処理" style="resizable=0;html=1;align=center;verticalAlign=top;labelBackgroundColor=none;fontColor=#000000;" connectable="0" vertex="1" parent="A2DtMqtqLgV5lxE1PWke-50">
          <mxGeometry relative="1" as="geometry" />
        </mxCell>
        <mxCell id="A2DtMqtqLgV5lxE1PWke-52" value="&lt;p style=&quot;margin:0px;margin-top:4px;text-align:center;&quot;&gt;&lt;i&gt;&amp;lt;&amp;lt;bind&amp;gt;&amp;gt;&lt;/i&gt;&lt;br&gt;&lt;b&gt;&amp;nbsp;詳細｜&lt;/b&gt;&lt;b style=&quot;background-color: initial;&quot;&gt;unique-card&lt;/b&gt;&lt;/p&gt;&lt;hr size=&quot;1&quot;&gt;&lt;div&gt;&lt;span style=&quot;background-color: initial;&quot;&gt;&amp;nbsp;+ dialog: Boolean&lt;/span&gt;&lt;br&gt;&lt;/div&gt;&lt;div&gt;&amp;nbsp;+ form: Array&lt;span style=&quot;background-color: initial;&quot;&gt;&lt;br&gt;&lt;/span&gt;&lt;/div&gt;&lt;div&gt;&amp;nbsp;+ mapCenter: Array&amp;nbsp;&lt;/div&gt;&lt;div&gt;&lt;span style=&quot;background-color: initial;&quot;&gt;&amp;nbsp;+ isNone: Boolean&lt;/span&gt;&lt;/div&gt;&lt;hr size=&quot;1&quot;&gt;&lt;p style=&quot;margin:0px;margin-left:4px;&quot;&gt;&lt;span style=&quot;background-color: initial;&quot;&gt;+ ポップアップ画面を閉じる()｜open():&amp;nbsp;&lt;/span&gt;&lt;/p&gt;&lt;p style=&quot;margin:0px;margin-left:4px;&quot;&gt;+ ポップアップ画面を閉じる()｜close():&amp;nbsp;&lt;span style=&quot;background-color: initial;&quot;&gt;&lt;br&gt;&lt;/span&gt;&lt;/p&gt;&amp;nbsp;+ 画像を登録する()｜add()&lt;br&gt;&amp;nbsp;&lt;span style=&quot;background-color: initial;&quot;&gt;+ 画像を削除&lt;/span&gt;する()｜&lt;span style=&quot;background-color: initial;&quot;&gt;remove()&lt;/span&gt;" style="verticalAlign=top;align=left;overflow=fill;fontSize=12;fontFamily=Helvetica;html=1;" vertex="1" parent="1">
          <mxGeometry x="1130" y="-760" width="280" height="200" as="geometry" />
        </mxCell>
        <mxCell id="A2DtMqtqLgV5lxE1PWke-54" value="&lt;p style=&quot;margin:0px;margin-top:4px;text-align:center;&quot;&gt;&lt;i&gt;&amp;lt;&amp;lt;boundary&amp;gt;&amp;gt;&lt;/i&gt;&lt;b&gt;&lt;br&gt;&lt;/b&gt;&lt;/p&gt;&lt;p style=&quot;margin:0px;margin-top:4px;text-align:center;&quot;&gt;&lt;b&gt;ヤマネコ目撃情報投稿｜add&lt;/b&gt;&lt;/p&gt;&lt;hr size=&quot;1&quot;&gt;&lt;div&gt;&amp;nbsp;+ title: String&lt;/div&gt;&lt;div&gt;&lt;span style=&quot;background-color: initial;&quot;&gt;&amp;nbsp;+ isUser: Boolean&lt;/span&gt;&lt;br&gt;&lt;/div&gt;&lt;hr size=&quot;1&quot;&gt;&lt;p style=&quot;margin:0px;margin-left:4px;&quot;&gt;+ 目撃日付あいまい選択変更()｜rememberChengeDate(val: Boolean):&amp;nbsp;&lt;span style=&quot;background-color: initial;&quot;&gt;&lt;br&gt;&lt;/span&gt;&lt;/p&gt;&lt;p style=&quot;margin:0px;margin-left:4px;&quot;&gt;+ 目撃時刻あいまい選択変更()｜rememberChengeTime(val: Boolean):&amp;nbsp;&lt;br&gt;&lt;/p&gt;&lt;p style=&quot;margin:0px;margin-left:4px;&quot;&gt;&lt;/p&gt;&lt;br&gt;&amp;nbsp;+ 画像をする()｜addPhoto(file: Object):&amp;nbsp;&lt;br&gt;&amp;nbsp;+ 確認画面を閉じてDB更新のバッチ処理をする()｜removePhotos(file: Object):&amp;nbsp;&lt;br&gt;&amp;nbsp;+ ポップアップ画面を閉じる()｜close():&amp;nbsp;&lt;br&gt;&amp;nbsp;+ 動画を保持する()｜addVideo(file: Object):&amp;nbsp;&lt;br&gt;&amp;nbsp;+ 動画を削除する()｜removeVideo(file: Object):&amp;nbsp;" style="verticalAlign=top;align=left;overflow=fill;fontSize=12;fontFamily=Helvetica;html=1;" vertex="1" parent="1">
          <mxGeometry x="890" y="-1240.25" width="430" height="250.5" as="geometry" />
        </mxCell>
        <mxCell id="A2DtMqtqLgV5lxE1PWke-55" value="&lt;p style=&quot;margin:0px;margin-top:4px;text-align:center;&quot;&gt;&lt;i&gt;&amp;lt;&amp;lt;&amp;gt;&amp;gt;&lt;/i&gt;&lt;br&gt;&lt;b&gt;目撃情報キャッシュ｜witness-&lt;/b&gt;&lt;b style=&quot;background-color: initial;&quot;&gt;cache&lt;/b&gt;&lt;/p&gt;&lt;hr size=&quot;1&quot;&gt;&lt;p style=&quot;margin:0px;margin-left:4px;&quot;&gt;+ animals: Array&lt;/p&gt;&lt;hr size=&quot;1&quot;&gt;&lt;p style=&quot;margin:0px;margin-left:4px;&quot;&gt;&lt;span style=&quot;background-color: initial;&quot;&gt;+ 目撃情報を取得する()｜getCache(id: String): Object&lt;/span&gt;&lt;/p&gt;&lt;p style=&quot;margin:0px;margin-left:4px;&quot;&gt;+ 目撃情報を追加する()｜createCache(params: Object): Boolean&lt;br&gt;&lt;/p&gt;&lt;p style=&quot;margin:0px;margin-left:4px;&quot;&gt;+ 目撃情報を更新する()｜updateCache(params: Object): Boolean&lt;br&gt;&lt;/p&gt;&lt;p style=&quot;margin:0px;margin-left:4px;&quot;&gt;+ 目撃情報を削除する()｜deleteCache(params: Object):&lt;br&gt;&lt;/p&gt;&lt;p style=&quot;margin:0px;margin-left:4px;&quot;&gt;+ 目撃情報()｜complete(params: Object):&lt;/p&gt;" style="verticalAlign=top;align=left;overflow=fill;fontSize=12;fontFamily=Helvetica;html=1;fontColor=#000000;" vertex="1" parent="1">
          <mxGeometry x="850" y="-2158.5" width="350" height="160" as="geometry" />
        </mxCell>
        <mxCell id="A2DtMqtqLgV5lxE1PWke-62" value="&amp;lt;&amp;lt;create&amp;gt;&amp;gt;" style="endArrow=open;html=1;rounded=0;align=center;verticalAlign=bottom;dashed=1;endFill=0;labelBackgroundColor=none;fontColor=#000000;startSize=22;endSize=6;sourcePerimeterSpacing=0;targetPerimeterSpacing=0;strokeWidth=2;jumpSize=6;entryX=0.25;entryY=1;entryDx=0;entryDy=0;exitX=0.75;exitY=0;exitDx=0;exitDy=0;" edge="1" parent="1" source="A2DtMqtqLgV5lxE1PWke-54" target="A2DtMqtqLgV5lxE1PWke-1">
          <mxGeometry relative="1" as="geometry">
            <mxPoint x="1469.9999999999995" y="-1250" as="sourcePoint" />
            <mxPoint x="1469.9999999999995" y="-1430" as="targetPoint" />
          </mxGeometry>
        </mxCell>
        <mxCell id="A2DtMqtqLgV5lxE1PWke-63" value="ヤマネコ管理処理" style="resizable=0;html=1;align=center;verticalAlign=top;labelBackgroundColor=none;fontColor=#000000;" connectable="0" vertex="1" parent="A2DtMqtqLgV5lxE1PWke-62">
          <mxGeometry relative="1" as="geometry" />
        </mxCell>
        <mxCell id="A2DtMqtqLgV5lxE1PWke-67" value="&lt;p style=&quot;margin:0px;margin-top:4px;text-align:center;&quot;&gt;&lt;i&gt;&amp;lt;&amp;lt;&amp;gt;&amp;gt;&lt;/i&gt;&lt;br&gt;&lt;b&gt;動画データストア｜video&lt;/b&gt;&lt;br&gt;&lt;/p&gt;&lt;hr size=&quot;1&quot;&gt;&lt;p style=&quot;margin:0px;margin-left:4px;&quot;&gt;+ animals: Array&lt;/p&gt;&lt;hr size=&quot;1&quot;&gt;&lt;p style=&quot;margin:0px;margin-left:4px;&quot;&gt;&lt;span style=&quot;background-color: initial;&quot;&gt;+ 動画のメタ情報を取得する()｜getVideoMetadata(file: Object):&amp;nbsp;&lt;/span&gt;&lt;br&gt;&lt;/p&gt;&lt;p style=&quot;margin:0px;margin-left:4px;&quot;&gt;+ 動画をアップロードする()｜uploadVideo(file: Object):&lt;/p&gt;&lt;p style=&quot;margin:0px;margin-left:4px;&quot;&gt;&lt;span style=&quot;background-color: initial;&quot;&gt;+ 参照可能な動画URLを取得する()｜getVideoURL(params: Object): String&lt;/span&gt;&lt;/p&gt;&lt;p style=&quot;margin:0px;margin-left:4px;&quot;&gt;+ 動画を圧縮する()｜transcodeVideo(params: Object):&lt;br&gt;&lt;/p&gt;&amp;nbsp;+ 動画をストレージから削除する()｜&lt;span style=&quot;background-color: initial;&quot;&gt;deleteUploadVideo&lt;/span&gt;(params: Object):&lt;br&gt;&amp;nbsp;+ 動画を取得する()|&amp;nbsp;getVideo(params: Object):&lt;br&gt;&amp;nbsp;+ 動画情報を追加する()｜addVideo(params: Object):&lt;br&gt;&amp;nbsp;+ 動画情報を削除する()｜deleteVideo(params: Object):&lt;br&gt;&amp;nbsp;+ 動画情報を目撃情報から削除する()｜updateWitness():&amp;nbsp;" style="verticalAlign=top;align=left;overflow=fill;fontSize=12;fontFamily=Helvetica;html=1;fontColor=#000000;" vertex="1" parent="1">
          <mxGeometry x="2080" y="-2190" width="420" height="230" as="geometry" />
        </mxCell>
        <mxCell id="A2DtMqtqLgV5lxE1PWke-68" value="&lt;p style=&quot;margin:0px;margin-top:4px;text-align:center;&quot;&gt;&lt;i&gt;&amp;lt;&amp;lt;functions&amp;gt;&amp;gt;&lt;/i&gt;&lt;br&gt;&lt;b&gt;動画データストア｜index&lt;/b&gt;&lt;br&gt;&lt;/p&gt;&lt;hr size=&quot;1&quot;&gt;&lt;p style=&quot;margin:0px;margin-left:4px;&quot;&gt;+ animals: Array&lt;/p&gt;&lt;hr size=&quot;1&quot;&gt;&lt;p style=&quot;margin:0px;margin-left:4px;&quot;&gt;&lt;span style=&quot;background-color: initial;&quot;&gt;+ 動画のメタ情報を取得する()｜getVideoInfo(file: Object):&amp;nbsp;&lt;/span&gt;&lt;br&gt;&lt;/p&gt;&lt;p style=&quot;margin:0px;margin-left:4px;&quot;&gt;&lt;br&gt;&lt;/p&gt;" style="verticalAlign=top;align=left;overflow=fill;fontSize=12;fontFamily=Helvetica;html=1;fontColor=#000000;" vertex="1" parent="1">
          <mxGeometry x="2560" y="-2158.5" width="360" height="151.5" as="geometry" />
        </mxCell>
        <mxCell id="A2DtMqtqLgV5lxE1PWke-70" value="&lt;p style=&quot;margin:0px;margin-top:4px;text-align:center;&quot;&gt;&lt;i&gt;&amp;lt;&amp;lt;bind&amp;gt;&amp;gt;&lt;/i&gt;&lt;br&gt;&lt;b&gt;&amp;nbsp;マップ区間選択｜&lt;/b&gt;&lt;b style=&quot;background-color: initial;&quot;&gt;map-sectionline&lt;/b&gt;&lt;/p&gt;&lt;hr size=&quot;1&quot;&gt;&lt;div&gt;&lt;span style=&quot;background-color: initial;&quot;&gt;&amp;nbsp;+ dialog: Boolean&lt;/span&gt;&lt;br&gt;&lt;/div&gt;&lt;div&gt;&amp;nbsp;+ form: Array&lt;span style=&quot;background-color: initial;&quot;&gt;&lt;br&gt;&lt;/span&gt;&lt;/div&gt;&lt;div&gt;&amp;nbsp;+ mapCenter: Array&amp;nbsp;&lt;/div&gt;&lt;div&gt;&lt;span style=&quot;background-color: initial;&quot;&gt;&amp;nbsp;+ isNone: Boolean&lt;/span&gt;&lt;/div&gt;&lt;hr size=&quot;1&quot;&gt;&lt;p style=&quot;margin:0px;margin-left:4px;&quot;&gt;&lt;span style=&quot;background-color: initial;&quot;&gt;+ ポップアップ画面を閉じる()｜open():&amp;nbsp;&lt;/span&gt;&lt;/p&gt;&lt;p style=&quot;margin:0px;margin-left:4px;&quot;&gt;+ ポップアップ画面を閉じる()｜close():&amp;nbsp;&lt;span style=&quot;background-color: initial;&quot;&gt;&lt;br&gt;&lt;/span&gt;&lt;/p&gt;&amp;nbsp;+ 画像を登録する()｜add()&lt;br&gt;&amp;nbsp;&lt;span style=&quot;background-color: initial;&quot;&gt;+ 画像を削除&lt;/span&gt;する()｜&lt;span style=&quot;background-color: initial;&quot;&gt;remove()&lt;/span&gt;" style="verticalAlign=top;align=left;overflow=fill;fontSize=12;fontFamily=Helvetica;html=1;" vertex="1" parent="1">
          <mxGeometry x="460" y="-760" width="340" height="200" as="geometry" />
        </mxCell>
        <mxCell id="A2DtMqtqLgV5lxE1PWke-71" value="&lt;p style=&quot;margin:0px;margin-top:4px;text-align:center;&quot;&gt;&lt;i&gt;&amp;lt;&amp;lt;parts&amp;gt;&amp;gt;&lt;/i&gt;&lt;br&gt;&lt;b&gt;&amp;nbsp;タイルボタン｜&lt;/b&gt;&lt;b style=&quot;background-color: initial;&quot;&gt;tile&lt;/b&gt;&lt;/p&gt;&lt;hr size=&quot;1&quot;&gt;&lt;div&gt;&lt;span style=&quot;background-color: initial;&quot;&gt;&amp;nbsp;+ id: String&lt;/span&gt;&lt;br&gt;&lt;/div&gt;&lt;div&gt;&amp;nbsp;+ icon: String&lt;span style=&quot;background-color: initial;&quot;&gt;&lt;br&gt;&lt;/span&gt;&lt;/div&gt;&lt;div&gt;&amp;nbsp;+ text: String&lt;/div&gt;&lt;div&gt;&lt;span style=&quot;background-color: initial;&quot;&gt;&amp;nbsp;+ checked: Boolean&lt;/span&gt;&lt;/div&gt;&lt;div&gt;&amp;nbsp;+ disabled: Boolean&lt;span style=&quot;background-color: initial;&quot;&gt;&lt;br&gt;&lt;/span&gt;&lt;/div&gt;&lt;hr size=&quot;1&quot;&gt;&lt;p style=&quot;margin:0px;margin-left:4px;&quot;&gt;&lt;br&gt;&lt;/p&gt;" style="verticalAlign=top;align=left;overflow=fill;fontSize=12;fontFamily=Helvetica;html=1;fillColor=#D4E1F5;" vertex="1" parent="1">
          <mxGeometry x="380" y="-1050" width="180" height="150" as="geometry" />
        </mxCell>
        <mxCell id="A2DtMqtqLgV5lxE1PWke-72" value="&lt;p style=&quot;margin:0px;margin-top:4px;text-align:center;&quot;&gt;&lt;i&gt;&amp;lt;&amp;lt;parts&amp;gt;&amp;gt;&lt;/i&gt;&lt;br&gt;&lt;b&gt;投稿フォーム｜&lt;/b&gt;&lt;b style=&quot;background-color: initial;&quot;&gt;form&lt;/b&gt;&lt;/p&gt;&lt;hr size=&quot;1&quot;&gt;&lt;div&gt;&lt;span style=&quot;background-color: initial;&quot;&gt;&amp;nbsp;+ item: Object&lt;/span&gt;&lt;br&gt;&lt;/div&gt;&lt;div&gt;&amp;nbsp;+ title: String&lt;span style=&quot;background-color: initial;&quot;&gt;&lt;br&gt;&lt;/span&gt;&lt;/div&gt;&lt;div&gt;&amp;nbsp;+ text: String&lt;/div&gt;&lt;div&gt;&lt;span style=&quot;background-color: initial;&quot;&gt;&amp;nbsp;+ isProgress: Boolean&lt;/span&gt;&lt;/div&gt;&lt;hr size=&quot;1&quot;&gt;&lt;p style=&quot;margin:0px;margin-left:4px;&quot;&gt;+ validation():&amp;nbsp;&lt;/p&gt;" style="verticalAlign=top;align=left;overflow=fill;fontSize=12;fontFamily=Helvetica;html=1;fillColor=#D4E1F5;" vertex="1" parent="1">
          <mxGeometry x="600" y="-1200" width="200" height="150" as="geometry" />
        </mxCell>
        <mxCell id="A2DtMqtqLgV5lxE1PWke-73" value="&lt;p style=&quot;margin:0px;margin-top:4px;text-align:center;&quot;&gt;&lt;i&gt;&amp;lt;&amp;lt;parts&amp;gt;&amp;gt;&lt;/i&gt;&lt;br&gt;&lt;b&gt;曖昧チェック部品｜&lt;/b&gt;&lt;b style=&quot;background-color: initial;&quot;&gt;form-parts&lt;/b&gt;&lt;/p&gt;&lt;hr size=&quot;1&quot;&gt;&lt;div&gt;&amp;nbsp;+ text: String&lt;span style=&quot;background-color: initial;&quot;&gt;&lt;br&gt;&lt;/span&gt;&lt;/div&gt;&lt;div&gt;&lt;span style=&quot;background-color: initial;&quot;&gt;&amp;nbsp;+ date: String&lt;/span&gt;&lt;br&gt;&lt;/div&gt;&lt;div&gt;&amp;nbsp;+ checkId: String&lt;span style=&quot;background-color: initial;&quot;&gt;&lt;br&gt;&lt;/span&gt;&lt;/div&gt;&amp;nbsp;+&amp;nbsp;&lt;span style=&quot;background-color: initial;&quot;&gt;isChecked: Boolean&lt;/span&gt;&lt;br&gt;&lt;div&gt;&lt;span style=&quot;background-color: initial;&quot;&gt;&amp;nbsp;+ isNeed: Boolean&lt;/span&gt;&lt;/div&gt;&lt;div&gt;&amp;nbsp;+ is_checked: Boolean&lt;span style=&quot;background-color: initial;&quot;&gt;&lt;br&gt;&lt;/span&gt;&lt;/div&gt;&lt;hr size=&quot;1&quot;&gt;&lt;p style=&quot;margin:0px;margin-left:4px;&quot;&gt;# isChecked(newVal, oldVal):&amp;nbsp;&lt;/p&gt;&amp;nbsp;# is_checked(newVal, oldVal&lt;span style=&quot;background-color: initial;&quot;&gt;):&amp;nbsp;&lt;/span&gt;&lt;p style=&quot;margin:0px;margin-left:4px;&quot;&gt;&lt;br&gt;&lt;/p&gt;" style="verticalAlign=top;align=left;overflow=fill;fontSize=12;fontFamily=Helvetica;html=1;fillColor=#D4E1F5;" vertex="1" parent="1">
          <mxGeometry x="590" y="-989.75" width="250" height="190" as="geometry" />
        </mxCell>
        <mxCell id="A2DtMqtqLgV5lxE1PWke-74" value="&lt;p style=&quot;margin:0px;margin-top:4px;text-align:center;&quot;&gt;&lt;i&gt;&amp;lt;&amp;lt;parts&amp;gt;&amp;gt;&lt;/i&gt;&lt;br&gt;&lt;b&gt;パネルヘッダー部品｜&lt;/b&gt;&lt;b style=&quot;background-color: initial;&quot;&gt;panel-header&lt;/b&gt;&lt;/p&gt;&lt;hr size=&quot;1&quot;&gt;&lt;div&gt;&lt;span style=&quot;background-color: initial;&quot;&gt;&amp;nbsp;+ step: String&lt;/span&gt;&lt;br&gt;&lt;/div&gt;&lt;div&gt;&amp;nbsp;+ stepTitle: String&lt;span style=&quot;background-color: initial;&quot;&gt;&lt;br&gt;&lt;/span&gt;&lt;/div&gt;&lt;div&gt;&amp;nbsp;+ title: String&lt;br&gt;&lt;/div&gt;&lt;div&gt;&amp;nbsp;+ text: String&lt;/div&gt;&lt;div&gt;&lt;span style=&quot;background-color: initial;&quot;&gt;&amp;nbsp;+ valid: Boolean&lt;/span&gt;&lt;/div&gt;&lt;div&gt;&amp;nbsp;+ submitted: Boolean&lt;span style=&quot;background-color: initial;&quot;&gt;&lt;br&gt;&lt;/span&gt;&lt;/div&gt;&lt;hr size=&quot;1&quot;&gt;&lt;p style=&quot;margin:0px;margin-left:4px;&quot;&gt;&lt;br&gt;&lt;/p&gt;" style="verticalAlign=top;align=left;overflow=fill;fontSize=12;fontFamily=Helvetica;html=1;fillColor=#D4E1F5;" vertex="1" parent="1">
          <mxGeometry x="615.5" y="-1402" width="243" height="160" as="geometry" />
        </mxCell>
        <mxCell id="A2DtMqtqLgV5lxE1PWke-75" value="&lt;p style=&quot;margin:0px;margin-top:4px;text-align:center;&quot;&gt;&lt;i&gt;&amp;lt;&amp;lt;bind&amp;gt;&amp;gt;&lt;/i&gt;&lt;br&gt;&lt;b style=&quot;background-color: initial;&quot;&gt;マップ｜map&lt;/b&gt;&lt;/p&gt;&lt;hr size=&quot;1&quot;&gt;&lt;div&gt;&amp;nbsp;+ center: Array&lt;/div&gt;&lt;div&gt;&amp;nbsp;+&amp;nbsp;latlngType: String&lt;br&gt;&lt;/div&gt;&lt;div&gt;&amp;nbsp;+&amp;nbsp;targetLat: [String, Number]&lt;br&gt;&lt;/div&gt;&lt;div&gt;&amp;nbsp;+&amp;nbsp;targetLng: [String, Number]&lt;br&gt;&lt;/div&gt;&lt;div&gt;&amp;nbsp;# url:&amp;nbsp;&lt;/div&gt;&lt;div&gt;&amp;nbsp;# zoom: 11&lt;/div&gt;&lt;div&gt;&amp;nbsp;#&amp;nbsp;attribution:&amp;nbsp;&lt;/div&gt;&lt;div&gt;&amp;nbsp;#&amp;nbsp;file: Object&lt;/div&gt;&lt;div&gt;&amp;nbsp;#&amp;nbsp;marker: Object&lt;br&gt;&lt;/div&gt;&lt;div&gt;&amp;nbsp;# markers: Array&lt;br&gt;&lt;/div&gt;&lt;hr size=&quot;1&quot;&gt;&lt;p style=&quot;margin:0px;margin-left:4px;&quot;&gt;&lt;/p&gt;&amp;nbsp;# 位置情報の共有方法を変更する()｜latlngType(newVal, oldVal):&amp;nbsp;&lt;p style=&quot;margin:0px;margin-left:4px;&quot;&gt;&lt;span style=&quot;background-color: initial;&quot;&gt;+ マップ初期調整()｜init():&amp;nbsp;&lt;/span&gt;&lt;/p&gt;&lt;p style=&quot;margin:0px;margin-left:4px;&quot;&gt;+ マップ上にマーカーを表示する()｜setLatLng():&amp;nbsp;&lt;/p&gt;&amp;nbsp;+ 画像の位置情報を取得し、マップ上にマーカーを表示する()｜&lt;span style=&quot;background-color: initial;&quot;&gt;setFileLatLng(object):&amp;nbsp;&lt;br&gt;&lt;/span&gt;&amp;nbsp;+ 電柱マスターの位置情報を取得し、マップ上に線形を表示する()｜setMarkerPole(object):&amp;nbsp;&lt;br&gt;&amp;nbsp;+ マップ上をタップしてマーカーをスライド可に変更する()｜changeRadio(event):&amp;nbsp;&lt;br&gt;&amp;nbsp;+ マップ上からマーカーを削除する()｜resetMarker():&amp;nbsp;&lt;br&gt;&amp;nbsp;+ GPS情報を取得し、マップ上にマーカーを表示する()｜getGPS():&amp;nbsp;&lt;br&gt;&amp;nbsp;" style="verticalAlign=top;align=left;overflow=fill;fontSize=12;fontFamily=Helvetica;html=1;" vertex="1" parent="1">
          <mxGeometry x="2120" y="-850" width="520" height="340" as="geometry" />
        </mxCell>
        <mxCell id="A2DtMqtqLgV5lxE1PWke-76" value="&lt;p style=&quot;margin:0px;margin-top:4px;text-align:center;&quot;&gt;&lt;i&gt;&amp;lt;&amp;lt;parts&amp;gt;&amp;gt;&lt;/i&gt;&lt;br&gt;&lt;b&gt;位置情報の注意喚起｜&lt;/b&gt;&lt;b style=&quot;background-color: initial;&quot;&gt;mobile-attention&lt;/b&gt;&lt;/p&gt;&lt;hr size=&quot;1&quot;&gt;&lt;div&gt;&lt;span style=&quot;background-color: initial;&quot;&gt;&amp;nbsp;+ isShowMessage: Boolean&lt;/span&gt;&lt;/div&gt;&lt;hr size=&quot;1&quot;&gt;&lt;p style=&quot;margin:0px;margin-left:4px;&quot;&gt;&lt;br&gt;&lt;/p&gt;" style="verticalAlign=top;align=left;overflow=fill;fontSize=12;fontFamily=Helvetica;html=1;fillColor=#D4E1F5;" vertex="1" parent="1">
          <mxGeometry x="640" y="-520" width="243" height="100" as="geometry" />
        </mxCell>
        <mxCell id="A2DtMqtqLgV5lxE1PWke-77" value="&lt;p style=&quot;margin:0px;margin-top:4px;text-align:center;&quot;&gt;&lt;i&gt;&amp;lt;&amp;lt;parts&amp;gt;&amp;gt;&lt;/i&gt;&lt;br&gt;&lt;b&gt;iPhoneの位置情報設定｜setting&lt;/b&gt;&lt;b style=&quot;background-color: initial;&quot;&gt;-iphone&lt;/b&gt;&lt;/p&gt;&lt;hr size=&quot;1&quot;&gt;&lt;div&gt;&lt;span style=&quot;background-color: initial;&quot;&gt;&amp;nbsp;+ isShowMessage: Boolean&lt;/span&gt;&lt;/div&gt;&lt;div&gt;&amp;nbsp;+ dialog: Boolean&lt;span style=&quot;background-color: initial;&quot;&gt;&lt;br&gt;&lt;/span&gt;&lt;/div&gt;&lt;div&gt;&amp;nbsp;+ sound: Boolean&lt;br&gt;&lt;/div&gt;&lt;div&gt;&amp;nbsp;+ widgets: Boolean&lt;br&gt;&lt;/div&gt;&lt;hr size=&quot;1&quot;&gt;&lt;p style=&quot;margin:0px;margin-left:4px;&quot;&gt;+ close():&lt;/p&gt;" style="verticalAlign=top;align=left;overflow=fill;fontSize=12;fontFamily=Helvetica;html=1;fillColor=#D4E1F5;" vertex="1" parent="1">
          <mxGeometry x="600" y="-360" width="243" height="150" as="geometry" />
        </mxCell>
        <mxCell id="A2DtMqtqLgV5lxE1PWke-78" value="&lt;p style=&quot;margin:0px;margin-top:4px;text-align:center;&quot;&gt;&lt;i&gt;&amp;lt;&amp;lt;parts&amp;gt;&amp;gt;&lt;/i&gt;&lt;br&gt;&lt;b&gt;androidの位置情報設定｜setting&lt;/b&gt;&lt;b style=&quot;background-color: initial;&quot;&gt;-android&lt;/b&gt;&lt;/p&gt;&lt;hr size=&quot;1&quot;&gt;&lt;div&gt;&lt;span style=&quot;background-color: initial;&quot;&gt;&amp;nbsp;+ isShowMessage: Boolean&lt;/span&gt;&lt;/div&gt;&lt;div&gt;&amp;nbsp;+ dialog: Boolean&lt;span style=&quot;background-color: initial;&quot;&gt;&lt;br&gt;&lt;/span&gt;&lt;/div&gt;&lt;div&gt;&amp;nbsp;+ sound: Boolean&lt;br&gt;&lt;/div&gt;&lt;div&gt;&amp;nbsp;+ widgets: Boolean&lt;br&gt;&lt;/div&gt;&lt;hr size=&quot;1&quot;&gt;&lt;p style=&quot;margin:0px;margin-left:4px;&quot;&gt;+ close():&lt;/p&gt;" style="verticalAlign=top;align=left;overflow=fill;fontSize=12;fontFamily=Helvetica;html=1;fillColor=#D4E1F5;" vertex="1" parent="1">
          <mxGeometry x="880" y="-360" width="243" height="150" as="geometry" />
        </mxCell>
      </root>
    </mxGraphModel>
  </diagram>
</mxfile>
